# xmcd
#
# Track frame offsets: 
#        150
#        15000
#        28776
#        46455
#        61843
#        77842
#        91964
#        106852
#        124008
#        140403
#
# Disc length: 2099 seconds
#
# Revision: 0
# Processed by: cddbd v1.5.1PL2 Copyright (c) Steve Scherf et al.
# Submitted via: ExactAudioCopy v0.95b4
#
DISCID=7208310a
DTITLE=อร  อรดี - สาวบางกรวย
DYEAR=1900
DGENRE=Country
TTITLE0=สาวบางกรวย
TTITLE1=คอยพี่ที่สวนกาแฟ
TTITLE2=ฝากตัวเป็นน้อง
TTITLE3=อายจังเลย
TTITLE4=รอเธอที่ทุ่งทับกระดาน
TTITLE5=สาวคลองไผ่
TTITLE6=ลูกสาว ม.ศ.
TTITLE7=อย่ามัวแต่มอง
TTITLE8=เปิดเทอมหัวใจ
TTITLE9=เดี๋ยวพุงย้วย
EXTD=
EXTT0=
EXTT1=
EXTT2=
EXTT3=
EXTT4=
EXTT5=
EXTT6=
EXTT7=
EXTT8=
EXTT9=
PLAYORDER=
